<?xml version="1.0" standalone="no"?>
<!DOCTYPE svg PUBLIC "-//W3C//DTD SVG 20010904//EN"
 "http://www.w3.org/TR/2001/REC-SVG-20010904/DTD/svg10.dtd">
<svg version="1.0" xmlns="http://www.w3.org/2000/svg"
 width="1898.000000pt" height="1898.000000pt" viewBox="0 0 1898.000000 1898.000000"
 preserveAspectRatio="xMidYMid meet">
<metadata>
Created by potrace 1.16, written by Peter Selinger 2001-2019
</metadata>
<g transform="translate(0.000000,1898.000000) scale(0.100000,-0.100000)"
fill="#000000" stroke="none">
<path d="M0 9490 l0 -9490 9490 0 9490 0 0 9490 0 9490 -9490 0 -9490 0 0
-9490z m6100 2451 c221 -7 237 -4 -235 -51 -320 -33 -364 -38 -605 -69 -266
-36 -460 -68 -656 -111 -104 -23 -268 -59 -364 -80 -341 -75 -604 -153 -950
-280 -753 -278 -1375 -642 -1794 -1049 -425 -415 -634 -820 -653 -1261 -7
-166 7 -293 40 -378 l22 -57 6 140 c12 250 66 459 174 675 237 474 773 965
1435 1314 223 118 590 286 623 286 33 0 -54 -54 -178 -111 -502 -229 -828
-448 -1130 -760 -240 -248 -395 -475 -494 -725 -167 -422 -146 -866 62 -1281
180 -357 521 -721 927 -988 155 -101 243 -152 435 -247 196 -98 235 -121 232
-133 -8 -23 -67 -13 -224 40 -874 295 -1623 747 -2019 1218 -363 432 -496 935
-372 1407 44 170 158 405 277 575 265 377 696 724 1291 1038 749 395 1697 661
2950 826 247 33 491 60 585 64 107 6 415 4 615 -2z m3822 -1323 c31 -90 117
-336 191 -548 199 -566 388 -1111 532 -1530 35 -102 86 -250 115 -330 87 -245
380 -1079 417 -1188 l35 -103 482 7 c264 4 482 7 482 8 4 4 9 1808 6 2634 l-2
992 -285 0 -285 0 0 70 0 70 753 -1 752 0 118 -177 c65 -97 151 -224 190 -282
146 -213 464 -681 595 -875 74 -110 176 -261 227 -335 50 -74 172 -254 270
-400 98 -146 213 -316 254 -377 42 -62 80 -113 85 -113 6 0 7 189 3 473 -4
259 -7 804 -7 1210 l0 737 -280 0 -280 0 0 70 0 70 670 0 670 0 0 -70 0 -70
-292 -2 -293 -3 -3 -1922 -2 -1923 -90 0 -90 0 -624 938 c-343 515 -711 1065
-816 1222 -106 157 -384 571 -617 920 -234 349 -427 637 -429 639 -2 2 -4
-784 -4 -1747 l0 -1752 288 -2 287 -3 3 -71 3 -71 -953 -6 c-524 -4 -1229 -7
-1565 -7 l-613 0 0 75 0 75 306 0 c288 0 306 1 299 18 -9 21 -241 699 -303
885 l-47 137 -639 -2 -640 -3 -178 -510 c-98 -280 -178 -513 -178 -517 0 -5
135 -8 300 -8 l301 0 -3 -72 -3 -73 -1512 -3 -1513 -2 0 75 0 75 290 0 290 0
0 1765 c0 1123 -3 1765 -10 1765 -5 0 -16 -21 -24 -47 -39 -130 -274 -863
-550 -1713 -63 -195 -146 -454 -185 -575 -38 -121 -117 -371 -176 -555 -59
-184 -138 -433 -176 -554 -38 -120 -72 -222 -75 -227 -3 -5 -48 -9 -100 -9
-93 0 -95 0 -105 27 -11 31 -210 655 -369 1163 -61 195 -142 450 -180 565 -71
216 -278 859 -402 1250 -38 121 -85 270 -105 330 -19 61 -51 163 -71 228 -20
64 -40 117 -44 117 -5 0 -8 -794 -8 -1765 l0 -1765 285 0 285 0 0 -75 0 -75
-670 0 -670 0 0 75 0 75 288 0 289 0 7 506 c4 278 4 1094 0 1815 l-7 1309
-289 0 -288 0 0 70 0 70 760 0 759 0 35 -112 c113 -364 331 -1072 346 -1123
10 -33 50 -163 88 -290 39 -126 107 -351 152 -498 87 -288 187 -613 196 -637
5 -13 6 -13 14 0 7 13 123 374 206 643 13 42 35 112 48 155 32 103 189 599
283 892 41 129 127 400 191 602 l117 368 743 0 742 0 0 -70 0 -70 -290 0 -290
0 0 -1815 0 -1815 459 0 459 0 65 178 c36 97 123 332 192 522 70 190 156 424
192 520 35 96 98 267 138 380 40 113 123 342 183 510 61 168 151 415 200 550
48 135 167 460 263 722 l174 478 100 0 100 0 57 -162z m6126 71 c383 -124 793
-301 1102 -477 157 -89 431 -271 570 -378 123 -96 370 -334 439 -424 318 -418
437 -854 351 -1282 -52 -254 -198 -543 -401 -796 -146 -180 -394 -401 -634
-565 -864 -590 -1859 -926 -3370 -1142 -501 -71 -577 -77 -955 -80 -303 -1
-652 7 -539 13 20 1 151 13 290 27 632 62 1111 131 1429 205 69 16 208 47 310
69 253 55 389 91 608 162 591 192 1058 404 1503 680 514 319 927 739 1124
1144 107 219 146 378 153 619 5 186 -7 294 -41 366 l-21 45 -7 -150 c-11 -246
-56 -419 -164 -640 -108 -222 -234 -392 -445 -605 -257 -259 -537 -469 -895
-672 -190 -108 -720 -356 -733 -343 -16 15 64 60 293 163 528 237 990 607
1306 1042 127 175 242 433 288 641 108 502 -31 988 -414 1444 -274 326 -628
599 -1035 797 -109 53 -276 142 -290 155 -6 6 22 23 38 23 7 0 70 -18 140 -41z"/>
<path d="M9368 9493 c-48 -131 -134 -366 -191 -523 -113 -307 -205 -561 -268
-733 -21 -60 -39 -115 -39 -123 0 -12 84 -14 570 -14 449 0 570 3 570 13 0 6
-52 165 -116 352 -63 187 -186 548 -272 802 -86 255 -159 463 -162 463 -3 0
-45 -107 -92 -237z"/>
</g>
</svg>
